<mxfile host="app.diagrams.net" modified="2021-11-23T14:51:01.110Z" agent="5.0 (Macintosh; Intel Mac OS X 10_15_7) AppleWebKit/537.36 (KHTML, like Gecko) Chrome/95.0.4638.69 Safari/537.36" etag="IgbT9s5Ya0CjG0xx-EEN" version="15.8.3" type="github">
  <diagram id="q3-XRglBtdeabh9B3p0N" name="第 1 页">
    <mxGraphModel dx="1137" dy="714" grid="1" gridSize="10" guides="1" tooltips="1" connect="1" arrows="1" fold="1" page="1" pageScale="1" pageWidth="827" pageHeight="1169" math="0" shadow="0">
      <root>
        <mxCell id="0" />
        <mxCell id="1" parent="0" />
        <mxCell id="CM4Fl8Z0MAdIjCwBSgfe-6" value="&lt;font style=&quot;font-size: 16px&quot;&gt;官方方案&lt;br&gt;可以看成一致性哈希环&lt;/font&gt;" style="ellipse;whiteSpace=wrap;html=1;aspect=fixed;strokeWidth=4;dashed=1;" vertex="1" parent="1">
          <mxGeometry x="210" y="460" width="370" height="370" as="geometry" />
        </mxCell>
        <mxCell id="CM4Fl8Z0MAdIjCwBSgfe-1" value="" style="sketch=0;aspect=fixed;html=1;points=[];align=center;image;fontSize=12;image=img/lib/mscae/Cache_Redis_Product.svg;" vertex="1" parent="1">
          <mxGeometry x="347.38" y="410" width="95.24" height="80" as="geometry" />
        </mxCell>
        <mxCell id="CM4Fl8Z0MAdIjCwBSgfe-3" value="" style="sketch=0;aspect=fixed;html=1;points=[];align=center;image;fontSize=12;image=img/lib/mscae/Cache_Redis_Product.svg;" vertex="1" parent="1">
          <mxGeometry x="530" y="620" width="95.24" height="80" as="geometry" />
        </mxCell>
        <mxCell id="CM4Fl8Z0MAdIjCwBSgfe-4" value="" style="sketch=0;aspect=fixed;html=1;points=[];align=center;image;fontSize=12;image=img/lib/mscae/Cache_Redis_Product.svg;" vertex="1" parent="1">
          <mxGeometry x="347.38" y="800" width="95.24" height="80" as="geometry" />
        </mxCell>
        <mxCell id="CM4Fl8Z0MAdIjCwBSgfe-2" value="" style="sketch=0;aspect=fixed;html=1;points=[];align=center;image;fontSize=12;image=img/lib/mscae/Cache_Redis_Product.svg;" vertex="1" parent="1">
          <mxGeometry x="160" y="620" width="95.24" height="80" as="geometry" />
        </mxCell>
        <mxCell id="CM4Fl8Z0MAdIjCwBSgfe-10" value="&lt;font style=&quot;font-size: 19px&quot;&gt;顺时针查找的&lt;br&gt;映射着槽位信息&lt;/font&gt;" style="text;html=1;align=center;verticalAlign=middle;resizable=0;points=[];autosize=1;strokeColor=none;fillColor=none;fontSize=16;" vertex="1" parent="1">
          <mxGeometry x="570" y="510" width="150" height="40" as="geometry" />
        </mxCell>
      </root>
    </mxGraphModel>
  </diagram>
</mxfile>
